{"asset":{"version":"2.0","generator":"Blockbench 3.8.0 glTF exporter"},"scenes":[{"nodes":[12,30],"name":"blockbench_export"}],"scene":0,"nodes":[{"name":"d5ae2c2a-bb9b-b0dc-9676-e879bbf8388a","mesh":0},{"name":"b6b1c0d1-a6c4-aed6-b011-ddbb4d797b9b","mesh":1},{"name":"ef11c1f9-7c6b-c136-d2af-a32d30e64b1c","mesh":2},{"name":"5ccd7cbb-ee53-4b14-c47e-905fea641fdd","mesh":3},{"name":"5e8f17dd-4bd8-21b0-ba64-6e18d6408f0b","mesh":4},{"name":"5e5245a4-5a78-5126-a8ea-67e547db66d6","mesh":5},{"name":"87112156-08c4-4d5e-d3c0-2ada3e61c7d3","mesh":6},{"name":"2efe0a43-f3c6-8132-9f29-49a5aa1ca636","mesh":7},{"name":"0e8b0ab4-7fa5-dc9a-1f48-fbae7ad068a1","mesh":8},{"name":"3bf77961-28a7-4079-643c-72a15a3ff5be","mesh":9},{"name":"65e670f6-3714-492a-2c31-d2d84ef03e71","mesh":10},{"name":"3841bb2e-001a-8ea1-2219-6cbb81dec951","mesh":11},{"name":"bone3","children":[0,1,2,3,4,5,6,7,8,9,10,11]},{"name":"bone2"},{"name":"bone3"},{"name":"200cff05-b904-94a1-b984-69a8c1a635c8","mesh":12},{"name":"a071eb64-719e-57f9-2b4e-b3aa1c582568","mesh":13},{"name":"ba7bf607-8145-3387-47cd-cdde83ff5c64","mesh":14},{"name":"30924d26-4e6e-3d29-da8a-d654a31fd2f0","mesh":15},{"name":"d0924431-5b28-e82f-b819-b105a3128edf","mesh":16},{"name":"bone2","children":[15,16,17,18,19]},{"translation":[0,0.375,0.0625],"name":"bone2"},{"name":"a1394572-71e7-775a-4279-4ba7a201438b","mesh":17},{"name":"89067f9f-2867-4ec0-f582-97bfc1105507","mesh":18},{"name":"cef24f9a-1b46-03ee-ef75-42ee26ae3da0","mesh":19},{"translation":[0,-0.375,-0.0625],"name":"85c4aa7a-efc3-720d-a730-5f2789c729c0","mesh":20},{"translation":[0,-0.375,-0.0625],"name":"057616f5-d122-cdf9-bc7f-a56596735fd7","mesh":21},{"translation":[0,-0.375,-0.0625],"name":"a3a094ac-492e-cea6-05d1-76efdf09db0c","mesh":22},{"rotation":[0.1521233861899167,0,0,0.9883615104677607],"translation":[0,0.375,0.0625],"name":"bone2","children":[25,26,27]},{"name":"bone2","children":[21,22,23,24,28]},{"rotation":[0.07993064225189045,0.2535801140242858,-0.07993064225189045,0.9606868952108333],"translation":[0.0625,0.0625,0.0625],"name":"bone","children":[13,14,20,29]}],"bufferViews":[{"buffer":0,"byteOffset":0,"byteLength":432,"target":34962,"byteStride":12},{"buffer":0,"byteOffset":432,"byteLength":432,"target":34962,"byteStride":12},{"buffer":0,"byteOffset":864,"byteLength":288,"target":34962,"byteStride":8},{"buffer":0,"byteOffset":1152,"byteLength":432,"target":34962,"byteStride":12},{"buffer":0,"byteOffset":1584,"byteLength":432,"target":34962,"byteStride":12},{"buffer":0,"byteOffset":2016,"byteLength":288,"target":34962,"byteStride":8},{"buffer":0,"byteOffset":2304,"byteLength":432,"target":34962,"byteStride":12},{"buffer":0,"byteOffset":2736,"byteLength":432,"target":34962,"byteStride":12},{"buffer":0,"byteOffset":3168,"byteLength":288,"target":34962,"byteStride":8},{"buffer":0,"byteOffset":3456,"byteLength":432,"target":34962,"byteStride":12},{"buffer":0,"byteOffset":3888,"byteLength":432,"target":34962,"byteStride":12},{"buffer":0,"byteOffset":4320,"byteLength":288,"target":34962,"byteStride":8},{"buffer":0,"byteOffset":4608,"byteLength":432,"target":34962,"byteStride":12},{"buffer":0,"byteOffset":5040,"byteLength":432,"target":34962,"byteStride":12},{"buffer":0,"byteOffset":5472,"byteLength":288,"target":34962,"byteStride":8},{"buffer":0,"byteOffset":5760,"byteLength":432,"target":34962,"byteStride":12},{"buffer":0,"byteOffset":6192,"byteLength":432,"target":34962,"byteStride":12},{"buffer":0,"byteOffset":6624,"byteLength":288,"target":34962,"byteStride":8},{"buffer":0,"byteOffset":6912,"byteLength":432,"target":34962,"byteStride":12},{"buffer":0,"byteOffset":7344,"byteLength":432,"target":34962,"byteStride":12},{"buffer":0,"byteOffset":7776,"byteLength":288,"target":34962,"byteStride":8},{"buffer":0,"byteOffset":8064,"byteLength":432,"target":34962,"byteStride":12},{"buffer":0,"byteOffset":8496,"byteLength":432,"target":34962,"byteStride":12},{"buffer":0,"byteOffset":8928,"byteLength":288,"target":34962,"byteStride":8},{"buffer":0,"byteOffset":9216,"byteLength":432,"target":34962,"byteStride":12},{"buffer":0,"byteOffset":9648,"byteLength":432,"target":34962,"byteStride":12},{"buffer":0,"byteOffset":10080,"byteLength":288,"target":34962,"byteStride":8},{"buffer":0,"byteOffset":10368,"byteLength":432,"target":34962,"byteStride":12},{"buffer":0,"byteOffset":10800,"byteLength":432,"target":34962,"byteStride":12},{"buffer":0,"byteOffset":11232,"byteLength":288,"target":34962,"byteStride":8},{"buffer":0,"byteOffset":11520,"byteLength":432,"target":34962,"byteStride":12},{"buffer":0,"byteOffset":11952,"byteLength":432,"target":34962,"byteStride":12},{"buffer":0,"byteOffset":12384,"byteLength":288,"target":34962,"byteStride":8},{"buffer":0,"byteOffset":12672,"byteLength":432,"target":34962,"byteStride":12},{"buffer":0,"byteOffset":13104,"byteLength":432,"target":34962,"byteStride":12},{"buffer":0,"byteOffset":13536,"byteLength":288,"target":34962,"byteStride":8},{"buffer":0,"byteOffset":13824,"byteLength":432,"target":34962,"byteStride":12},{"buffer":0,"byteOffset":14256,"byteLength":432,"target":34962,"byteStride":12},{"buffer":0,"byteOffset":14688,"byteLength":288,"target":34962,"byteStride":8},{"buffer":0,"byteOffset":14976,"byteLength":432,"target":34962,"byteStride":12},{"buffer":0,"byteOffset":15408,"byteLength":432,"target":34962,"byteStride":12},{"buffer":0,"byteOffset":15840,"byteLength":288,"target":34962,"byteStride":8},{"buffer":0,"byteOffset":16128,"byteLength":432,"target":34962,"byteStride":12},{"buffer":0,"byteOffset":16560,"byteLength":432,"target":34962,"byteStride":12},{"buffer":0,"byteOffset":16992,"byteLength":288,"target":34962,"byteStride":8},{"buffer":0,"byteOffset":17280,"byteLength":432,"target":34962,"byteStride":12},{"buffer":0,"byteOffset":17712,"byteLength":432,"target":34962,"byteStride":12},{"buffer":0,"byteOffset":18144,"byteLength":288,"target":34962,"byteStride":8},{"buffer":0,"byteOffset":18432,"byteLength":432,"target":34962,"byteStride":12},{"buffer":0,"byteOffset":18864,"byteLength":432,"target":34962,"byteStride":12},{"buffer":0,"byteOffset":19296,"byteLength":288,"target":34962,"byteStride":8},{"buffer":0,"byteOffset":19584,"byteLength":432,"target":34962,"byteStride":12},{"buffer":0,"byteOffset":20016,"byteLength":432,"target":34962,"byteStride":12},{"buffer":0,"byteOffset":20448,"byteLength":288,"target":34962,"byteStride":8},{"buffer":0,"byteOffset":20736,"byteLength":432,"target":34962,"byteStride":12},{"buffer":0,"byteOffset":21168,"byteLength":432,"target":34962,"byteStride":12},{"buffer":0,"byteOffset":21600,"byteLength":288,"target":34962,"byteStride":8},{"buffer":0,"byteOffset":21888,"byteLength":432,"target":34962,"byteStride":12},{"buffer":0,"byteOffset":22320,"byteLength":432,"target":34962,"byteStride":12},{"buffer":0,"byteOffset":22752,"byteLength":288,"target":34962,"byteStride":8},{"buffer":0,"byteOffset":23040,"byteLength":432,"target":34962,"byteStride":12},{"buffer":0,"byteOffset":23472,"byteLength":432,"target":34962,"byteStride":12},{"buffer":0,"byteOffset":23904,"byteLength":288,"target":34962,"byteStride":8},{"buffer":0,"byteOffset":24192,"byteLength":432,"target":34962,"byteStride":12},{"buffer":0,"byteOffset":24624,"byteLength":432,"target":34962,"byteStride":12},{"buffer":0,"byteOffset":25056,"byteLength":288,"target":34962,"byteStride":8},{"buffer":0,"byteOffset":25344,"byteLength":432,"target":34962,"byteStride":12},{"buffer":0,"byteOffset":25776,"byteLength":432,"target":34962,"byteStride":12},{"buffer":0,"byteOffset":26208,"byteLength":288,"target":34962,"byteStride":8}],"buffers":[{"byteLength":26496,"uri":"data:application/octet-stream;base64,"}],"accessors":[{"bufferView":0,"componentType":5126,"count":36,"max":[0.375,0.1875,0.0625],"min":[0,0,-0.3125],"type":"VEC3"},{"bufferView":1,"componentType":5126,"count":36,"max":[1,1,1],"min":[-1,-1,-1],"type":"VEC3"},{"bufferView":2,"componentType":5126,"count":36,"max":[0.374755859375,0.609130859375],"min":[0.000244140625,0.468994140625],"type":"VEC2"},{"bufferView":3,"componentType":5126,"count":36,"max":[0.0625,0.125,0.0625],"min":[-0.4375,0,-0.375],"type":"VEC3"},{"bufferView":4,"componentType":5126,"count":36,"max":[1,1,1],"min":[-1,-1,-1],"type":"VEC3"},{"bufferView":5,"componentType":5126,"count":36,"max":[0.468505859375,0.749755859375],"min":[0.000244140625,0.609619140625],"type":"VEC2"},{"bufferView":6,"componentType":5126,"count":36,"max":[0.25,0.1875,0.3125],"min":[0,0,0.0625],"type":"VEC3"},{"bufferView":7,"componentType":5126,"count":36,"max":[1,1,1],"min":[-1,-1,-1],"type":"VEC3"},{"bufferView":8,"componentType":5126,"count":36,"max":[0.609130859375,0.749755859375],"min":[0.359619140625,0.640869140625],"type":"VEC2"},{"bufferView":9,"componentType":5126,"count":36,"max":[0.5,0.0000625000029685907,0.5],"min":[-0.5,0,-0.5],"type":"VEC3"},{"bufferView":10,"componentType":5126,"count":36,"max":[1,1,1],"min":[-1,-1,-1],"type":"VEC3"},{"bufferView":11,"componentType":5126,"count":36,"max":[0.999755859375,0.999755859375],"min":[0.000244140625,0.749755859375],"type":"VEC2"},{"bufferView":12,"componentType":5126,"count":36,"max":[0.125,0.0625,-0.3125],"min":[0.0625,0,-0.375],"type":"VEC3"},{"bufferView":13,"componentType":5126,"count":36,"max":[1,1,1],"min":[-1,-1,-1],"type":"VEC3"},{"bufferView":14,"componentType":5126,"count":36,"max":[0.562255859375,0.421630859375],"min":[0.500244140625,0.390869140625],"type":"VEC2"},{"bufferView":15,"componentType":5126,"count":36,"max":[0.0625,0.25,0.1875],"min":[0,0.1875,0.125],"type":"VEC3"},{"bufferView":16,"componentType":5126,"count":36,"max":[1,1,1],"min":[-1,-1,-1],"type":"VEC3"},{"bufferView":17,"componentType":5126,"count":36,"max":[0.499755859375,0.421630859375],"min":[0.437744140625,0.390869140625],"type":"VEC2"},{"bufferView":18,"componentType":5126,"count":36,"max":[-0.375,0.0625,0.125],"min":[-0.4375,0,0.0625],"type":"VEC3"},{"bufferView":19,"componentType":5126,"count":36,"max":[1,1,1],"min":[-1,-1,-1],"type":"VEC3"},{"bufferView":20,"componentType":5126,"count":36,"max":[0.343505859375,0.546630859375],"min":[0.281494140625,0.515869140625],"type":"VEC2"},{"bufferView":21,"componentType":5126,"count":36,"max":[0.3125,0.0625,0.125],"min":[0.25,0,0.0625],"type":"VEC3"},{"bufferView":22,"componentType":5126,"count":36,"max":[1,1,1],"min":[-1,-1,-1],"type":"VEC3"},{"bufferView":23,"componentType":5126,"count":36,"max":[0.109130859375,0.671630859375],"min":[0.047119140625,0.640869140625],"type":"VEC2"},{"bufferView":24,"componentType":5126,"count":36,"max":[0.4375,0.0625,-0.1875],"min":[0.375,0,-0.25],"type":"VEC3"},{"bufferView":25,"componentType":5126,"count":36,"max":[1,1,1],"min":[-1,-1,-1],"type":"VEC3"},{"bufferView":26,"componentType":5126,"count":36,"max":[0.249755859375,0.890380859375],"min":[0.187744140625,0.859619140625],"type":"VEC2"},{"bufferView":27,"componentType":5126,"count":36,"max":[0,0.1875,0],"min":[-0.0625,0.125,-0.0625],"type":"VEC3"},{"bufferView":28,"componentType":5126,"count":36,"max":[1,1,1],"min":[-1,-1,-1],"type":"VEC3"},{"bufferView":29,"componentType":5126,"count":36,"max":[0.249755859375,0.999755859375],"min":[0.187744140625,0.968994140625],"type":"VEC2"},{"bufferView":30,"componentType":5126,"count":36,"max":[-0.25,0.0625,-0.375],"min":[-0.3125,0,-0.4375],"type":"VEC3"},{"bufferView":31,"componentType":5126,"count":36,"max":[1,1,1],"min":[-1,-1,-1],"type":"VEC3"},{"bufferView":32,"componentType":5126,"count":36,"max":[0.156005859375,0.999755859375],"min":[0.093994140625,0.968994140625],"type":"VEC2"},{"bufferView":33,"componentType":5126,"count":36,"max":[0,0.3125,0.375],"min":[-0.375,0,0],"type":"VEC3"},{"bufferView":34,"componentType":5126,"count":36,"max":[1,1,1],"min":[-1,-1,-1],"type":"VEC3"},{"bufferView":35,"componentType":5126,"count":36,"max":[0.749755859375,0.624755859375],"min":[0.375244140625,0.453369140625],"type":"VEC2"},{"bufferView":36,"componentType":5126,"count":36,"max":[0.0625,1.3125,0.0625],"min":[-0.0625,0.4375,-0.0625],"type":"VEC3"},{"bufferView":37,"componentType":5126,"count":36,"max":[1,1,1],"min":[-1,-1,-1],"type":"VEC3"},{"bufferView":38,"componentType":5126,"count":36,"max":[0.124755859375,0.999755859375],"min":[0.000244140625,0.750244140625],"type":"VEC2"},{"bufferView":39,"componentType":5126,"count":36,"max":[0.1875,1.625,0.0625],"min":[0.125,1.3125,-0.0625],"type":"VEC3"},{"bufferView":40,"componentType":5126,"count":36,"max":[1,1,1],"min":[-1,-1,-1],"type":"VEC3"},{"bufferView":41,"componentType":5126,"count":36,"max":[0.218505859375,0.999755859375],"min":[0.125244140625,0.890869140625],"type":"VEC2"},{"bufferView":42,"componentType":5126,"count":36,"max":[0.125,1.4375,0.0625],"min":[-0.125,1.3125,-0.0625],"type":"VEC3"},{"bufferView":43,"componentType":5126,"count":36,"max":[1,1,1],"min":[-1,-1,-1],"type":"VEC3"},{"bufferView":44,"componentType":5126,"count":36,"max":[0.468505859375,0.609130859375],"min":[0.281494140625,0.547119140625],"type":"VEC2"},{"bufferView":45,"componentType":5126,"count":36,"max":[0.125,1.59375,0.03125],"min":[-0.125,1.53125,-0.03125],"type":"VEC3"},{"bufferView":46,"componentType":5126,"count":36,"max":[1,1,1],"min":[-1,-1,-1],"type":"VEC3"},{"bufferView":47,"componentType":5126,"count":36,"max":[0.593505859375,0.452880859375],"min":[0.437744140625,0.422119140625],"type":"VEC2"},{"bufferView":48,"componentType":5126,"count":36,"max":[-0.125,1.625,0.0625],"min":[-0.1875,1.3125,-0.0625],"type":"VEC3"},{"bufferView":49,"componentType":5126,"count":36,"max":[1,1,1],"min":[-1,-1,-1],"type":"VEC3"},{"bufferView":50,"componentType":5126,"count":36,"max":[0.218505859375,0.874755859375],"min":[0.125244140625,0.765869140625],"type":"VEC2"},{"bufferView":51,"componentType":5126,"count":36,"max":[0.25062501430511475,0.5631250143051147,0.0006249999860301614],"min":[0.18687500059604645,0.37437498569488525,-0.06312499940395355],"type":"VEC3"},{"bufferView":52,"componentType":5126,"count":36,"max":[1,1,1],"min":[-1,-1,-1],"type":"VEC3"},{"bufferView":53,"componentType":5126,"count":36,"max":[0.609130859375,0.749755859375],"min":[0.547119140625,0.687744140625],"type":"VEC2"},{"bufferView":54,"componentType":5126,"count":36,"max":[-0.18687500059604645,0.5631250143051147,0.0006249999860301614],"min":[-0.25062501430511475,0.37437498569488525,-0.06312499940395355],"type":"VEC3"},{"bufferView":55,"componentType":5126,"count":36,"max":[1,1,1],"min":[-1,-1,-1],"type":"VEC3"},{"bufferView":56,"componentType":5126,"count":36,"max":[0.421630859375,0.749755859375],"min":[0.359619140625,0.687744140625],"type":"VEC2"},{"bufferView":57,"componentType":5126,"count":36,"max":[0.18812499940395355,0.5631250143051147,0.06312499940395355],"min":[-0.18812499940395355,0.37437498569488525,-0.0006249999860301614],"type":"VEC3"},{"bufferView":58,"componentType":5126,"count":36,"max":[1,1,1],"min":[-1,-1,-1],"type":"VEC3"},{"bufferView":59,"componentType":5126,"count":36,"max":[0.437255859375,0.452880859375],"min":[0.218994140625,0.390869140625],"type":"VEC2"},{"bufferView":60,"componentType":5126,"count":36,"max":[0.1875,0.375,0.0625],"min":[-0.1875,0.0625,0],"type":"VEC3"},{"bufferView":61,"componentType":5126,"count":36,"max":[1,1,1],"min":[-1,-1,-1],"type":"VEC3"},{"bufferView":62,"componentType":5126,"count":36,"max":[0.218505859375,0.468505859375],"min":[0.000244140625,0.375244140625],"type":"VEC2"},{"bufferView":63,"componentType":5126,"count":36,"max":[0.25,0.375,0],"min":[0.1875,0.0625,-0.0625],"type":"VEC3"},{"bufferView":64,"componentType":5126,"count":36,"max":[1,1,1],"min":[-1,-1,-1],"type":"VEC3"},{"bufferView":65,"componentType":5126,"count":36,"max":[0.062255859375,0.609130859375],"min":[0.000244140625,0.515869140625],"type":"VEC2"},{"bufferView":66,"componentType":5126,"count":36,"max":[-0.1875,0.375,0],"min":[-0.25,0.0625,-0.0625],"type":"VEC3"},{"bufferView":67,"componentType":5126,"count":36,"max":[1,1,1],"min":[-1,-1,-1],"type":"VEC3"},{"bufferView":68,"componentType":5126,"count":36,"max":[0.062255859375,0.749755859375],"min":[0.000244140625,0.656494140625],"type":"VEC2"}],"materials":[{"pbrMetallicRoughness":{"metallicFactor":0,"roughnessFactor":1,"baseColorTexture":{"index":0}},"alphaMode":"MASK","alphaCutoff":0.05,"doubleSided":true,"name":"shovel.png"}],"textures":[{"sampler":0,"source":0,"name":"shovel.png"}],"samplers":[{"magFilter":9728,"minFilter":9728,"wrapS":33071,"wrapT":33071}],"images":[{"mimeType":"image/png","uri":"data:image/png;base64,"}],"meshes":[{"primitives":[{"mode":4,"attributes":{"POSITION":0,"NORMAL":1,"TEXCOORD_0":2},"material":0}]},{"primitives":[{"mode":4,"attributes":{"POSITION":3,"NORMAL":4,"TEXCOORD_0":5},"material":0}]},{"primitives":[{"mode":4,"attributes":{"POSITION":6,"NORMAL":7,"TEXCOORD_0":8},"material":0}]},{"primitives":[{"mode":4,"attributes":{"POSITION":9,"NORMAL":10,"TEXCOORD_0":11},"material":0}]},{"primitives":[{"mode":4,"attributes":{"POSITION":12,"NORMAL":13,"TEXCOORD_0":14},"material":0}]},{"primitives":[{"mode":4,"attributes":{"POSITION":15,"NORMAL":16,"TEXCOORD_0":17},"material":0}]},{"primitives":[{"mode":4,"attributes":{"POSITION":18,"NORMAL":19,"TEXCOORD_0":20},"material":0}]},{"primitives":[{"mode":4,"attributes":{"POSITION":21,"NORMAL":22,"TEXCOORD_0":23},"material":0}]},{"primitives":[{"mode":4,"attributes":{"POSITION":24,"NORMAL":25,"TEXCOORD_0":26},"material":0}]},{"primitives":[{"mode":4,"attributes":{"POSITION":27,"NORMAL":28,"TEXCOORD_0":29},"material":0}]},{"primitives":[{"mode":4,"attributes":{"POSITION":30,"NORMAL":31,"TEXCOORD_0":32},"material":0}]},{"primitives":[{"mode":4,"attributes":{"POSITION":33,"NORMAL":34,"TEXCOORD_0":35},"material":0}]},{"primitives":[{"mode":4,"attributes":{"POSITION":36,"NORMAL":37,"TEXCOORD_0":38},"material":0}]},{"primitives":[{"mode":4,"attributes":{"POSITION":39,"NORMAL":40,"TEXCOORD_0":41},"material":0}]},{"primitives":[{"mode":4,"attributes":{"POSITION":42,"NORMAL":43,"TEXCOORD_0":44},"material":0}]},{"primitives":[{"mode":4,"attributes":{"POSITION":45,"NORMAL":46,"TEXCOORD_0":47},"material":0}]},{"primitives":[{"mode":4,"attributes":{"POSITION":48,"NORMAL":49,"TEXCOORD_0":50},"material":0}]},{"primitives":[{"mode":4,"attributes":{"POSITION":51,"NORMAL":52,"TEXCOORD_0":53},"material":0}]},{"primitives":[{"mode":4,"attributes":{"POSITION":54,"NORMAL":55,"TEXCOORD_0":56},"material":0}]},{"primitives":[{"mode":4,"attributes":{"POSITION":57,"NORMAL":58,"TEXCOORD_0":59},"material":0}]},{"primitives":[{"mode":4,"attributes":{"POSITION":60,"NORMAL":61,"TEXCOORD_0":62},"material":0}]},{"primitives":[{"mode":4,"attributes":{"POSITION":63,"NORMAL":64,"TEXCOORD_0":65},"material":0}]},{"primitives":[{"mode":4,"attributes":{"POSITION":66,"NORMAL":67,"TEXCOORD_0":68},"material":0}]}]}